<svg xmlns="http://www.w3.org/2000/svg" xmlns:xlink="http://www.w3.org/1999/xlink" width="56" height="56" viewBox="0 0 56 56">
  <defs>
    <filter id="Ellipse_2" x="0" y="0" width="56" height="56" filterUnits="userSpaceOnUse">
      <feOffset dy="3" input="SourceAlpha"/>
      <feGaussianBlur stdDeviation="3" result="blur"/>
      <feFlood flood-opacity="0.141"/>
      <feComposite operator="in" in2="blur"/>
      <feComposite in="SourceGraphic"/>
    </filter>
  </defs>
  <g id="Group_369" data-name="Group 369" transform="translate(-393 -11)">
    <g transform="matrix(1, 0, 0, 1, 393, 11)" filter="url(#Ellipse_2)">
      <circle id="Ellipse_2-2" data-name="Ellipse 2" cx="19" cy="19" r="19" transform="translate(9 6)" fill="#d1b6e1"/>
    </g>
    <path id="noun-check-3920506" d="M117.742,20.614a7.717,7.717,0,0,0-7.65,2.721,73.777,73.777,0,0,0-8.948,14.247.627.627,0,0,1-.837.294,6.939,6.939,0,0,1-2.534-2.09,1.254,1.254,0,0,0-1.762-.248Q95,36.3,93.923,36.977a1.253,1.253,0,0,0-.271,1.9,43.425,43.425,0,0,1,4.7,6.358,1.253,1.253,0,0,0,1.072.6h2.811a1.254,1.254,0,0,0,1.171-.808,68.753,68.753,0,0,1,13.23-21.652,7.232,7.232,0,0,1,1.392-1.137.89.89,0,0,0-.287-1.623Z" transform="translate(315.557 3.362)" fill="#fff"/>
  </g>
</svg>
