<svg xmlns="http://www.w3.org/2000/svg" width="27" height="29.455" viewBox="0 0 27 29.455">
  <path id="ic_pan_tool_24px" d="M28,6.75v17.8a4.924,4.924,0,0,1-4.909,4.909H14.132a4.9,4.9,0,0,1-3.5-1.46L1,18.2s1.546-1.51,1.6-1.534a1.454,1.454,0,0,1,.97-.356,1.5,1.5,0,0,1,.736.2c.049.012,5.29,3.019,5.29,3.019V4.909a1.841,1.841,0,0,1,3.682,0V13.5H14.5V1.841a1.841,1.841,0,0,1,3.682,0V13.5h1.227V3.068a1.841,1.841,0,1,1,3.682,0V13.5h1.227V6.75A1.841,1.841,0,1,1,28,6.75Z" transform="translate(-1)" fill="#a8a8a8"/>
</svg>
