<svg xmlns="http://www.w3.org/2000/svg" width="25.417" height="25.417" viewBox="0 0 25.417 25.417">
  <g id="noun-checkbox-498507" transform="translate(-70)">
    <path id="Path_44746" data-name="Path 44746" d="M90.334,0H75.083A5.084,5.084,0,0,0,70,5.083v15.25a5.084,5.084,0,0,0,5.083,5.083h15.25a5.084,5.084,0,0,0,5.083-5.083V5.083A5.084,5.084,0,0,0,90.334,0Zm.294,10.35-7.864,7.863a2.221,2.221,0,0,1-3.144,0l-4.831-4.831a2.224,2.224,0,0,1,3.145-3.144L81.192,13.5,87.483,7.2a2.224,2.224,0,0,1,3.145,3.146Z" fill="#d1b6e1"/>
  </g>
</svg>
