<svg xmlns="http://www.w3.org/2000/svg" width="33" height="33" viewBox="0 0 33 33">
  <g id="Group_2028" data-name="Group 2028" transform="translate(-1002 -254)">
    <g id="Rectangle_11945" data-name="Rectangle 11945" transform="translate(1002 254)" fill="#9c9696" stroke="#9c9696" stroke-width="1">
      <rect width="33" height="33" rx="3" stroke="none"/>
      <rect x="0.5" y="0.5" width="32" height="32" rx="2.5" fill="none"/>
    </g>
    <path id="noun-check-3920506" d="M117.742,20.614a7.717,7.717,0,0,0-7.65,2.721,73.777,73.777,0,0,0-8.948,14.247.627.627,0,0,1-.837.294,6.939,6.939,0,0,1-2.534-2.09,1.254,1.254,0,0,0-1.762-.248Q95,36.3,93.923,36.977a1.253,1.253,0,0,0-.271,1.9,43.425,43.425,0,0,1,4.7,6.358,1.253,1.253,0,0,0,1.072.6h2.811a1.254,1.254,0,0,0,1.171-.808,68.753,68.753,0,0,1,13.23-21.652,7.232,7.232,0,0,1,1.392-1.137.89.89,0,0,0-.287-1.623Z" transform="translate(913.556 237.362)" fill="#fff"/>
  </g>
</svg>
