<svg xmlns="http://www.w3.org/2000/svg" xmlns:xlink="http://www.w3.org/1999/xlink" width="59" height="59" viewBox="0 0 59 59">
  <defs>
    <filter id="Ellipse_16" x="0" y="0" width="59" height="59" filterUnits="userSpaceOnUse">
      <feOffset dy="3" input="SourceAlpha"/>
      <feGaussianBlur stdDeviation="3" result="blur"/>
      <feFlood flood-opacity="0.161"/>
      <feComposite operator="in" in2="blur"/>
      <feComposite in="SourceGraphic"/>
    </filter>
  </defs>
  <g id="Group_294" data-name="Group 294" transform="translate(-1094 -405)">
    <g transform="matrix(1, 0, 0, 1, 1094, 405)" filter="url(#Ellipse_16)">
      <circle id="Ellipse_16-2" data-name="Ellipse 16" cx="20.5" cy="20.5" r="20.5" transform="translate(9 6)" fill="#d1b6e1"/>
    </g>
    <g id="noun-edit-2253785" transform="translate(1042.942 418.278)">
      <path id="Path_16" data-name="Path 16" d="M70,11.711a.669.669,0,0,1,.195-.471L81.239.194A.67.67,0,0,1,81.711,0h.552a.669.669,0,0,1,.471.195l3.054,3.05a.669.669,0,0,1,.195.471v.552a.669.669,0,0,1-.195.471L74.743,15.787a.669.669,0,0,1-.471.195h-3.6A.666.666,0,0,1,70,15.316Z" transform="translate(0 0)" fill="#fff"/>
      <path id="Path_17" data-name="Path 17" d="M70.666,492.664A.666.666,0,0,1,70,492v-1.332a.666.666,0,0,1,.666-.666H90.644a.666.666,0,0,1,.666.666V492a.666.666,0,0,1-.666.666Z" transform="translate(0 -471.354)" fill="#fff"/>
    </g>
  </g>
</svg>
