<svg xmlns="http://www.w3.org/2000/svg" xmlns:xlink="http://www.w3.org/1999/xlink" width="59" height="59" viewBox="0 0 59 59">
  <defs>
    <filter id="Ellipse_16" x="0" y="0" width="59" height="59" filterUnits="userSpaceOnUse">
      <feOffset dy="3" input="SourceAlpha"/>
      <feGaussianBlur stdDeviation="3" result="blur"/>
      <feFlood flood-opacity="0.161"/>
      <feComposite operator="in" in2="blur"/>
      <feComposite in="SourceGraphic"/>
    </filter>
  </defs>
  <g id="Group_199" data-name="Group 199" transform="translate(-1094 -405)">
    <g transform="matrix(1, 0, 0, 1, 1094, 405)" filter="url(#Ellipse_16)">
      <circle id="Ellipse_16-2" data-name="Ellipse 16" cx="20.5" cy="20.5" r="20.5" transform="translate(9 6)" fill="#fff" opacity="0.73"/>
    </g>
    <path id="ic_pan_tool_24px" d="M23,5.5V20a4.012,4.012,0,0,1-4,4H11.7a3.993,3.993,0,0,1-2.85-1.19L1,14.83s1.26-1.23,1.3-1.25a1.185,1.185,0,0,1,.79-.29,1.222,1.222,0,0,1,.6.16C3.73,13.46,8,15.91,8,15.91V4a1.5,1.5,0,0,1,3,0v7h1V1.5a1.5,1.5,0,0,1,3,0V11h1V2.5a1.5,1.5,0,0,1,3,0V11h1V5.5a1.5,1.5,0,0,1,3,0Z" transform="translate(1110 420)" fill="#c2c2c2"/>
  </g>
</svg>
