<svg xmlns="http://www.w3.org/2000/svg" xmlns:xlink="http://www.w3.org/1999/xlink" width="59" height="59" viewBox="0 0 59 59">
  <defs>
    <filter id="Ellipse_16" x="0" y="0" width="59" height="59" filterUnits="userSpaceOnUse">
      <feOffset dy="3" input="SourceAlpha"/>
      <feGaussianBlur stdDeviation="3" result="blur"/>
      <feFlood flood-opacity="0.161"/>
      <feComposite operator="in" in2="blur"/>
      <feComposite in="SourceGraphic"/>
    </filter>
  </defs>
  <g id="Group_199" data-name="Group 199" transform="translate(-1094 -405)">
    <g transform="matrix(1, 0, 0, 1, 1094, 405)" filter="url(#Ellipse_16)">
      <circle id="Ellipse_16-2" data-name="Ellipse 16" cx="20.5" cy="20.5" r="20.5" transform="translate(9 6)" fill="#a4a3a3"/>
    </g>
    <g id="noun-task-2306415" transform="translate(926.868 348.332)">
      <path id="Path_17" data-name="Path 17" d="M204.951,72.815h-4.219V71.408A1.405,1.405,0,0,0,199.325,70H193.7a1.405,1.405,0,0,0-1.407,1.406v1.406h-4.219a1.405,1.405,0,0,0-1.406,1.406v21.1a1.405,1.405,0,0,0,1.406,1.406h16.877a1.405,1.405,0,0,0,1.406-1.406v-21.1A1.405,1.405,0,0,0,204.951,72.815Zm-9.845,0h2.813v2.813h-2.813Zm8.438,21.1H189.48V75.627h2.813v1.406A1.405,1.405,0,0,0,193.7,78.44h5.625a1.405,1.405,0,0,0,1.406-1.406V75.627h2.813Z" fill="#fff"/>
      <path id="Path_18" data-name="Path 18" d="M286.244,280.411l-2.742,2.742-.7-1.058a1.407,1.407,0,0,0-2.34,1.561l1.657,2.485a1.406,1.406,0,0,0,2.164.214l3.956-3.956a1.407,1.407,0,0,0-1.99-1.989Z" transform="translate(-87.913 -197.339)" fill="#fff"/>
    </g>
  </g>
</svg>
