<svg xmlns="http://www.w3.org/2000/svg" xmlns:xlink="http://www.w3.org/1999/xlink" width="59" height="59" viewBox="0 0 59 59">
  <defs>
    <filter id="Ellipse_19" x="0" y="0" width="59" height="59" filterUnits="userSpaceOnUse">
      <feOffset dy="3" input="SourceAlpha"/>
      <feGaussianBlur stdDeviation="3" result="blur"/>
      <feFlood flood-opacity="0.161"/>
      <feComposite operator="in" in2="blur"/>
      <feComposite in="SourceGraphic"/>
    </filter>
  </defs>
  <g id="Group_202" data-name="Group 202" transform="translate(-1197 -406)">
    <g transform="matrix(1, 0, 0, 1, 1197, 406)" filter="url(#Ellipse_19)">
      <circle id="Ellipse_19-2" data-name="Ellipse 19" cx="20.5" cy="20.5" r="20.5" transform="translate(9 6)" fill="#a4a3a3"/>
    </g>
    <path id="ic_poll_24px" d="M19,3H5A2.006,2.006,0,0,0,3,5V19a2.006,2.006,0,0,0,2,2H19a2.006,2.006,0,0,0,2-2V5A2.006,2.006,0,0,0,19,3ZM9,17H7V10H9Zm4,0H11V7h2Zm4,0H15V13h2Z" transform="translate(1215 421)" fill="#fff"/>
  </g>
</svg>
