<svg xmlns="http://www.w3.org/2000/svg" xmlns:xlink="http://www.w3.org/1999/xlink" width="59" height="59" viewBox="0 0 59 59">
  <defs>
    <filter id="Ellipse_20" x="0" y="0" width="59" height="59" filterUnits="userSpaceOnUse">
      <feOffset dy="3" input="SourceAlpha"/>
      <feGaussianBlur stdDeviation="3" result="blur"/>
      <feFlood flood-opacity="0.161"/>
      <feComposite operator="in" in2="blur"/>
      <feComposite in="SourceGraphic"/>
    </filter>
  </defs>
  <g id="Group_204" data-name="Group 204" transform="translate(-1301 -405)">
    <g transform="matrix(1, 0, 0, 1, 1301, 405)" filter="url(#Ellipse_20)">
      <circle id="Ellipse_20-2" data-name="Ellipse 20" cx="20.5" cy="20.5" r="20.5" transform="translate(9 6)" fill="#d1b6e1"/>
    </g>
    <path id="ic_group_24px" d="M18.045,11.818a3.409,3.409,0,1,0-3.409-3.409A3.395,3.395,0,0,0,18.045,11.818Zm-9.091,0A3.409,3.409,0,1,0,5.545,8.409,3.395,3.395,0,0,0,8.955,11.818Zm0,2.273C6.307,14.091,1,15.42,1,18.068v2.841H16.909V18.068C16.909,15.42,11.6,14.091,8.955,14.091Zm9.091,0c-.33,0-.7.023-1.1.057a4.8,4.8,0,0,1,2.239,3.92v2.841H26V18.068C26,15.42,20.693,14.091,18.045,14.091Z" transform="translate(1316.81 419)" fill="#fff"/>
  </g>
</svg>
