<svg xmlns="http://www.w3.org/2000/svg" width="38" height="38" viewBox="0 0 38 38">
  <g id="Group_32" data-name="Group 32" transform="translate(-402 -17)">
    <circle id="Ellipse_2" data-name="Ellipse 2" cx="19" cy="19" r="19" transform="translate(402 17)" fill="#58c9b9"/>
    <g id="noun-view-1644126" transform="translate(327.336 -141.546)">
      <path id="Path_44744" data-name="Path 44744" d="M138.9,171.36c-4.536,0-8.689,2.264-11.782,6.187,3.093,3.922,7.246,6.187,11.782,6.187,4.507,0,8.6-2.36,11.664-6.187C147.473,173.688,143.379,171.36,138.9,171.36Zm-.059,10.97a4.8,4.8,0,1,1,4.418-4.784A4.606,4.606,0,0,1,138.843,182.33Z" transform="translate(-45.179)" fill="#fff"/>
      <path id="Path_44745" data-name="Path 44745" d="M291.906,218.4a3.508,3.508,0,1,0,0,7.016c.159,0,.351-.032.51-.032a2.39,2.39,0,0,1,1.244-4.433,2.359,2.359,0,0,1,1.754.765,3.526,3.526,0,0,0-3.508-3.317Z" transform="translate(-198.242 -44.361)" fill="#fff"/>
    </g>
  </g>
</svg>
