<svg xmlns="http://www.w3.org/2000/svg" width="15.259" height="15.259" viewBox="0 0 15.259 15.259">
  <path id="ic_fitness_center_24px" d="M15.927,11.645,17,10.573,15.927,9.5,13.25,12.177,6.823,5.75,9.5,3.072,8.427,2,7.355,3.072,6.283,2,4.678,3.605,3.605,2.533,2.533,3.605,3.605,4.677,2,6.283,3.072,7.355,2,8.427,3.072,9.5,5.75,6.823l6.428,6.427L9.5,15.927,10.573,17l1.073-1.073L12.718,17l1.6-1.6L15.4,16.468,16.468,15.4,15.4,14.323l1.6-1.6Z" transform="matrix(-1, -0.017, 0.017, -1, 16.962, 17.294)" fill="#ffc400"/>
</svg>
