<svg xmlns="http://www.w3.org/2000/svg" xmlns:xlink="http://www.w3.org/1999/xlink" width="56" height="56" viewBox="0 0 56 56">
  <defs>
    <filter id="Ellipse_2" x="0" y="0" width="56" height="56" filterUnits="userSpaceOnUse">
      <feOffset dy="3" input="SourceAlpha"/>
      <feGaussianBlur stdDeviation="3" result="blur"/>
      <feFlood flood-opacity="0.278"/>
      <feComposite operator="in" in2="blur"/>
      <feComposite in="SourceGraphic"/>
    </filter>
  </defs>
  <g id="Group_32" data-name="Group 32" transform="translate(-393 -11)">
    <g transform="matrix(1, 0, 0, 1, 393, 11)" filter="url(#Ellipse_2)">
      <circle id="Ellipse_2-2" data-name="Ellipse 2" cx="19" cy="19" r="19" transform="translate(9 6)" fill="rgba(255,255,255,0.55)"/>
    </g>
    <path id="ic_fitness_center_24px" d="M20.57,14.86,22,13.43,20.57,12,17,15.57,8.43,7,12,3.43,10.57,2,9.14,3.43,7.71,2,5.57,4.14,4.14,2.71,2.71,4.14,4.14,5.57,2,7.71,3.43,9.14,2,10.57,3.43,12,7,8.43,15.57,17,12,20.57,13.43,22l1.43-1.43L16.29,22l2.14-2.14,1.43,1.43,1.43-1.43-1.43-1.43L22,16.29Z" transform="translate(409 24)" fill="#fcfcfc"/>
  </g>
</svg>
