<svg xmlns="http://www.w3.org/2000/svg" width="19.943" height="28.121" viewBox="0 0 19.943 28.121">
  <g id="noun-person-1218618" transform="translate(-96.501 -14)">
    <path id="Path_44736" data-name="Path 44736" d="M261.054,140.547c0-.028-1.174-4.123-1.48-5.349-.409-1.532-2.4-2.7-4.952-3.037a11.986,11.986,0,0,1-7.046,0c-2.6.334-4.544,1.5-4.952,3.037-.358,1.254-1.48,5.321-1.48,5.349-.153.529.511,1.031,1.48,1.114,1.123.084,1.94-.334,2.042-.808,0-.028,1.327-4.792,1.48-5.321,0-.028.051-.056.1-.056.1,0,.153.028.153.084v6.408l-1.583,9.417c-.1.7.817,1.309,2.093,1.365s2.4-.446,2.5-1.142c0,0,1.532-9.166,1.532-9.194s.2-.028.2,0,1.532,9.194,1.532,9.194c.1.669,1.021,1.226,2.5,1.142,1.276-.056,2.2-.669,2.093-1.365l-1.583-9.417.051-6.464c0-.028.051-.056.1-.056s.1.028.1.056c.153.529,1.48,5.321,1.48,5.377.153.474.817.919,2.042.808,1.021-.111,1.685-.613,1.583-1.142Z" transform="translate(-144.62 -110.638)" fill="#fff"/>
    <path id="Path_44737" data-name="Path 44737" d="M305.309,17.459c0,1.91-2.156,3.459-4.815,3.459s-4.815-1.548-4.815-3.459S297.836,14,300.495,14s4.815,1.548,4.815,3.459" transform="translate(-193.705 0)" fill="#fff"/>
  </g>
</svg>
