<svg xmlns="http://www.w3.org/2000/svg" xmlns:xlink="http://www.w3.org/1999/xlink" width="56" height="56" viewBox="0 0 56 56">
  <defs>
    <filter id="Ellipse_3" x="0" y="0" width="56" height="56" filterUnits="userSpaceOnUse">
      <feOffset dy="3" input="SourceAlpha"/>
      <feGaussianBlur stdDeviation="3" result="blur"/>
      <feFlood flood-opacity="0.278"/>
      <feComposite operator="in" in2="blur"/>
      <feComposite in="SourceGraphic"/>
    </filter>
  </defs>
  <g id="Group_15" data-name="Group 15" transform="translate(-342 -11)">
    <g transform="matrix(1, 0, 0, 1, 342, 11)" filter="url(#Ellipse_3)">
      <circle id="Ellipse_3-2" data-name="Ellipse 3" cx="19" cy="19" r="19" transform="translate(9 6)" fill="rgba(255,255,255,0.55)"/>
    </g>
    <path id="ic_power_settings_new_24px" d="M14.667,3H12.333V14.667h2.333ZM20.3,5.532,18.645,7.188A8.074,8.074,0,0,1,21.667,13.5,8.167,8.167,0,1,1,8.343,7.177L6.7,5.532A10.49,10.49,0,1,0,24,13.5,10.421,10.421,0,0,0,20.3,5.532Z" transform="translate(357 22)" fill="#fcfcfc"/>
  </g>
</svg>
