<svg xmlns="http://www.w3.org/2000/svg" xmlns:xlink="http://www.w3.org/1999/xlink" width="56" height="56" viewBox="0 0 56 56">
  <defs>
    <filter id="Ellipse_2" x="0" y="0" width="56" height="56" filterUnits="userSpaceOnUse">
      <feOffset dy="3" input="SourceAlpha"/>
      <feGaussianBlur stdDeviation="3" result="blur"/>
      <feFlood flood-opacity="0.278"/>
      <feComposite operator="in" in2="blur"/>
      <feComposite in="SourceGraphic"/>
    </filter>
  </defs>
  <g id="Group_16" data-name="Group 16" transform="translate(-393 -11)">
    <g transform="matrix(1, 0, 0, 1, 393, 11)" filter="url(#Ellipse_2)">
      <circle id="Ellipse_2-2" data-name="Ellipse 2" cx="19" cy="19" r="19" transform="translate(9 6)" fill="rgba(255,255,255,0.55)"/>
    </g>
    <path id="ic_notifications_none_24px" d="M14.764,28.737a2.7,2.7,0,0,0,2.691-2.691H12.073A2.7,2.7,0,0,0,14.764,28.737Zm8.073-8.073V13.937c0-4.131-2.193-7.589-6.055-8.5V4.518a2.018,2.018,0,1,0-4.037,0v.915c-3.848.915-6.055,4.359-6.055,8.5v6.728L4,23.355V24.7H25.528V23.355ZM20.146,22.01H9.382V13.937c0-3.337,2.032-6.055,5.382-6.055s5.382,2.718,5.382,6.055Z" transform="translate(406 19.262)" fill="#fcfcfc"/>
  </g>
</svg>
